<svg xmlns="http://www.w3.org/2000/svg" viewBox="0 0 512 512">
  <defs>
    <linearGradient id="bg" x1="0%" y1="0%" x2="100%" y2="100%">
      <stop offset="0%" stop-color="#5b21b6"/>
      <stop offset="100%" stop-color="#be185d"/>
    </linearGradient>
  </defs>

  <!-- Background -->
  <rect width="512" height="512" rx="96" fill="url(#bg)"/>

  <!-- Tassel BEHIND cap - centered with rightmost vertex -->
  <line x1="445" y1="244" x2="445" y2="420" stroke="#f59e0b" stroke-width="40" stroke-linecap="round"/>

  <!-- Lucide-style graduation cap -->
  <g transform="translate(32, 40) scale(18.7)" stroke="#ffffff" stroke-width="2" stroke-linecap="round" stroke-linejoin="round" fill="none">
    <!-- Cap top -->
    <path d="M21.42 10.922a1 1 0 0 0-.019-1.838L12.83 5.18a2 2 0 0 0-1.66 0L2.6 9.08a1 1 0 0 0 0 1.832l8.57 3.908a2 2 0 0 0 1.66 0z"/>
    <!-- Cap band -->
    <path d="M6 12.5V16a6 3 0 0 0 12 0v-3.5"/>
  </g>
</svg>
